<svg width="25" height="24" viewBox="0 0 25 24" fill="none" xmlns="http://www.w3.org/2000/svg">
<path d="M16.4999 7.00005C16.4999 6.44776 16.9477 6.00005 17.4999 6.00005C18.0522 6.00005 18.4999 6.44776 18.4999 7.00005C18.4999 7.55233 18.0522 8.00005 17.4999 8.00005C16.9477 8.00005 16.4999 7.55233 16.4999 7.00005Z" fill="#EA00BB"/>
<path fill-rule="evenodd" clip-rule="evenodd" d="M12.4999 7.25005C9.87659 7.25005 7.74994 9.37669 7.74994 12C7.74994 14.6234 9.87659 16.75 12.4999 16.75C15.1233 16.75 17.2499 14.6234 17.2499 12C17.2499 9.37669 15.1233 7.25005 12.4999 7.25005ZM9.24994 12C9.24994 10.2051 10.705 8.75005 12.4999 8.75005C14.2949 8.75005 15.7499 10.2051 15.7499 12C15.7499 13.795 14.2949 15.25 12.4999 15.25C10.705 15.25 9.24994 13.795 9.24994 12Z" fill="#EA00BB"/>
<path fill-rule="evenodd" clip-rule="evenodd" d="M17.7582 2.83306C14.2916 2.44562 10.7083 2.44562 7.24171 2.83306C5.22965 3.05794 3.60532 4.64295 3.36876 6.66548C2.95423 10.2098 2.95423 13.7903 3.36876 17.3346C3.60532 19.3571 5.22965 20.9422 7.24171 21.167C10.7083 21.5545 14.2916 21.5545 17.7582 21.167C19.7702 20.9422 21.3946 19.3571 21.6311 17.3346C22.0457 13.7903 22.0457 10.2098 21.6311 6.66548C21.3946 4.64295 19.7703 3.05794 17.7582 2.83306ZM7.40832 4.32378C10.7642 3.94871 14.2357 3.94871 17.5916 4.32378C18.9217 4.47244 19.9872 5.52205 20.1413 6.83973C20.5423 10.2683 20.5423 13.7318 20.1413 17.1604C19.9872 18.478 18.9217 19.5277 17.5916 19.6763C14.2357 20.0514 10.7642 20.0514 7.40832 19.6763C6.07821 19.5277 5.01272 18.478 4.85861 17.1604C4.45761 13.7318 4.45761 10.2683 4.85861 6.83973C5.01272 5.52205 6.07821 4.47244 7.40832 4.32378Z" fill="#EA00BB"/>
</svg>
