<svg width="32" height="32" viewBox="0 0 32 32" fill="none" xmlns="http://www.w3.org/2000/svg">
    <path fill-rule="evenodd" clip-rule="evenodd"
        d="M6.12259 20.4056C3.12544 13.049 8.53758 5 16.4813 5H16.9099C22.8507 5 27.6667 9.81601 27.6667 15.7569C27.6667 22.3713 22.3047 27.7333 15.6903 27.7333H5.26324C4.8389 27.7333 4.46076 27.4655 4.31992 27.0652C4.17909 26.6649 4.30622 26.2193 4.63708 25.9536L7.26573 23.8426C7.38067 23.7503 7.42133 23.5935 7.36571 23.4569L6.12259 20.4056ZM16.4813 7C9.95795 7 5.51353 13.6098 7.97478 19.6511L9.21789 22.7023C9.60722 23.658 9.32262 24.7558 8.51806 25.402L8.10546 25.7333H15.6903C21.2001 25.7333 25.6667 21.2667 25.6667 15.7569C25.6667 10.9206 21.7462 7 16.9099 7H16.4813Z"
        fill="currentColor" />
</svg>