<svg width="32" height="32" viewBox="0 0 32 32" fill="none" xmlns="http://www.w3.org/2000/svg">
    <path fill-rule="evenodd" clip-rule="evenodd"
        d="M18.077 7.37882C16.9163 6.265 15.0836 6.265 13.9228 7.37882L7.75424 13.2979C7.6031 13.443 7.50144 13.6319 7.46366 13.8379C6.72482 17.867 6.67028 21.9919 7.30234 26.0391L7.45236 26.9998H11.421V18.718C11.421 18.1658 11.8687 17.718 12.421 17.718H19.5789C20.1312 17.718 20.5789 18.1658 20.5789 18.718V26.9998H24.5475L24.6975 26.0391C25.3296 21.9919 25.275 17.867 24.5362 13.8379C24.4984 13.6319 24.3967 13.443 24.2456 13.2979L18.077 7.37882ZM12.5381 5.93572C14.4727 4.07937 17.5272 4.07937 19.4617 5.93572L25.6303 11.8548C26.0844 12.2906 26.3899 12.8581 26.5034 13.4772C27.2828 17.7273 27.3403 22.0784 26.6736 26.3477L26.4325 27.891C26.3329 28.5293 25.7831 28.9998 25.1372 28.9998H19.5789C19.0266 28.9998 18.5789 28.5521 18.5789 27.9998V19.718H13.421V27.9998C13.421 28.5521 12.9733 28.9998 12.421 28.9998H6.86267C6.21669 28.9998 5.66698 28.5293 5.5673 27.891L5.32629 26.3477C4.65956 22.0784 4.71709 17.7273 5.49646 13.4772C5.60997 12.8581 5.91541 12.2906 6.36951 11.8548L12.5381 5.93572Z"
        fill="currentColor" />
</svg>