<svg width="32" height="32" viewBox="0 0 32 32" fill="none" xmlns="http://www.w3.org/2000/svg">
    <path fill-rule="evenodd" clip-rule="evenodd"
        d="M18.1516 3.07994C18.5204 3.23698 18.7598 3.59913 18.7598 4.00003V13.3309H23.9998C24.3554 13.3309 24.6843 13.5198 24.8635 13.8269C25.0428 14.1341 25.0454 14.5133 24.8705 14.8229L24.2144 15.984C21.7262 20.3876 18.553 24.367 14.8139 27.7731L13.7533 28.7393C13.4605 29.006 13.038 29.0748 12.6757 28.9147C12.3135 28.7547 12.0798 28.396 12.0798 28V18.7482H6.6665C6.11422 18.7482 5.6665 18.3005 5.6665 17.7482C5.6665 17.5693 5.71347 17.4014 5.79575 17.2561C8.1408 12.9209 11.1432 8.97492 14.6961 5.55862L17.0667 3.27919C17.3557 3.00133 17.7827 2.9229 18.1516 3.07994ZM8.37927 16.7482H13.0798C13.6321 16.7482 14.0798 17.1959 14.0798 17.7482V25.726C17.3046 22.6786 20.0687 19.1769 22.2844 15.3309H17.7598C17.2076 15.3309 16.7598 14.8832 16.7598 14.3309V6.34885L16.0823 7.00029C13.0813 9.8859 10.4903 13.1659 8.37927 16.7482Z"
        fill="currentColor" />
</svg>