<svg width="20" height="20" viewBox="0 0 20 20" fill="none" xmlns="http://www.w3.org/2000/svg">
    <path
        d="M7.00016 4.375C4.68278 4.375 2.7085 6.10775 2.7085 8.35816C2.7085 9.91062 3.43545 11.2177 4.3989 12.3004C5.35905 13.3793 6.59778 14.285 7.71764 15.043L9.64982 16.3509C9.86142 16.4941 10.1389 16.4941 10.3505 16.3509L12.2827 15.043C13.4025 14.285 14.6413 13.3793 15.6014 12.3004C16.5649 11.2177 17.2918 9.91062 17.2918 8.35816C17.2918 6.10775 15.3175 4.375 13.0002 4.375C11.8056 4.375 10.7545 4.93512 10.0002 5.65986C9.24586 4.93512 8.19472 4.375 7.00016 4.375Z"
        fill="currentColor" />
</svg>