<svg width="20" height="20" viewBox="0 0 20 20" fill="none" xmlns="http://www.w3.org/2000/svg">
    <path fill-rule="evenodd" clip-rule="evenodd"
        d="M2.7085 8.35816C2.7085 6.10775 4.68278 4.375 7.00016 4.375C8.19472 4.375 9.24586 4.93512 10.0002 5.65986C10.7545 4.93512 11.8056 4.375 13.0002 4.375C15.3175 4.375 17.2918 6.10775 17.2918 8.35816C17.2918 9.89972 16.6344 11.2554 15.7236 12.4013C14.8144 13.5452 13.6251 14.5161 12.4864 15.305C12.0514 15.6063 11.6114 15.8843 11.2087 16.0893C10.8306 16.2819 10.3958 16.4583 10.0002 16.4583C9.60454 16.4583 9.16974 16.2819 8.7916 16.0893C8.3889 15.8843 7.94888 15.6063 7.51394 15.305C6.3752 14.5161 5.18589 13.5452 4.27668 12.4013C3.3659 11.2554 2.7085 9.89972 2.7085 8.35816ZM7.00016 5.625C5.26746 5.625 3.9585 6.89925 3.9585 8.35816C3.9585 9.52774 4.45499 10.6167 5.25524 11.6235C6.05706 12.6323 7.13593 13.5224 8.22578 14.2775C8.63818 14.5632 9.02661 14.8063 9.35887 14.9755C9.7157 15.1572 9.92238 15.2083 10.0002 15.2083C10.0779 15.2083 10.2846 15.1572 10.6415 14.9755C10.9737 14.8063 11.3621 14.5632 11.7745 14.2775C12.8644 13.5224 13.9433 12.6323 14.7451 11.6235C15.5453 10.6167 16.0418 9.52774 16.0418 8.35816C16.0418 6.89925 14.7329 5.625 13.0002 5.625C12.005 5.625 11.0758 6.21952 10.4956 6.9741C10.3773 7.12797 10.1943 7.21814 10.0002 7.21814C9.80607 7.21814 9.623 7.12797 9.50469 6.9741C8.9245 6.21952 7.99529 5.625 7.00016 5.625Z"
        fill="currentColor" />
</svg>